<?xml version="1.0" standalone="no"?>
<!DOCTYPE svg PUBLIC "-//W3C//DTD SVG 20010904//EN"
 "http://www.w3.org/TR/2001/REC-SVG-20010904/DTD/svg10.dtd">
<svg version="1.0" xmlns="http://www.w3.org/2000/svg"
 width="1000.000000pt" height="1000.000000pt" viewBox="0 0 1000.000000 1000.000000"
 preserveAspectRatio="xMidYMid meet">
<metadata>
Created by potrace 1.14, written by Peter Selinger 2001-2017
</metadata>
<g transform="translate(0.000000,1000.000000) scale(0.100000,-0.100000)"
fill="#000000" stroke="none">
<path d="M0 8412 l0 -1589 33 0 c17 0 35 5 39 11 5 7 8 7 8 -2 0 -7 5 -10 11
-6 6 3 35 6 65 7 30 0 58 5 62 11 4 6 20 17 35 24 18 8 25 16 21 25 -5 7 0 6
11 -3 10 -8 16 -10 12 -3 -4 6 3 23 16 37 19 20 26 23 37 13 10 -10 11 -9 5 2
-5 9 -3 12 5 9 7 -2 25 8 41 23 26 24 95 47 83 27 -3 -4 -16 -8 -30 -8 -22 0
-23 -2 -13 -21 10 -19 9 -20 -13 -14 -12 4 -20 4 -16 0 4 -5 3 -14 -3 -22 -15
-17 -8 -17 27 1 15 8 31 13 36 10 4 -3 8 0 8 5 0 6 -5 11 -11 11 -5 0 -8 4 -5
9 3 5 16 7 28 3 15 -4 19 -2 13 7 -5 9 0 12 16 10 13 -2 29 0 35 3 22 14 63
17 58 4 -3 -7 1 -13 8 -14 7 0 22 -3 33 -6 11 -2 24 -5 28 -5 4 -1 3 -11 -4
-22 -8 -15 -8 -19 0 -15 6 4 11 0 11 -9 0 -9 4 -14 9 -11 12 8 33 -19 23 -29
-4 -5 -1 -5 6 -1 9 6 10 11 2 21 -8 9 -7 14 4 18 17 7 30 -8 21 -22 -9 -15 15
-25 28 -12 9 9 7 11 -8 5 -16 -5 -18 -4 -8 6 14 15 36 3 29 -15 -2 -7 4 -15
14 -18 11 -3 18 -2 17 2 -1 3 3 6 8 6 6 0 9 -3 8 -6 -1 -4 6 -5 17 -2 11 3 18
9 15 13 -3 5 10 6 27 3 50 -9 134 -3 170 12 9 3 22 8 30 9 7 1 31 8 52 15 37
13 41 12 57 -8 21 -26 29 -27 24 -1 -3 17 -1 18 16 7 10 -6 19 -14 19 -18 0
-8 32 -5 48 5 6 4 12 2 12 -3 0 -6 5 -11 11 -11 5 0 8 4 5 9 -7 10 45 25 84
24 23 0 69 -15 93 -30 6 -3 7 -1 4 4 -4 6 4 11 21 11 46 0 71 6 66 14 -3 4 3
8 13 8 38 0 89 21 120 48 33 31 57 44 86 47 9 2 22 3 28 4 5 0 7 7 3 14 -5 8
-2 8 9 -2 9 -7 17 -9 17 -4 0 11 50 38 64 34 5 -1 3 6 -5 15 -8 10 -9 15 -3
11 26 -15 41 48 20 82 -6 10 -5 12 2 7 7 -4 12 -3 12 2 0 6 -7 13 -16 16 -9 3
-12 11 -8 18 5 8 2 9 -9 5 -17 -7 -21 1 -18 40 1 11 -3 24 -10 29 -8 4 -10 3
-5 -4 5 -8 2 -10 -8 -6 -9 3 -13 11 -9 18 3 6 2 7 -3 3 -5 -5 -9 -12 -9 -15 0
-4 -4 -14 -9 -22 -5 -8 -6 -12 -1 -8 4 4 14 3 22 -3 10 -9 13 -8 13 1 0 8 3
10 6 7 4 -4 1 -13 -5 -21 -7 -8 -10 -19 -7 -25 3 -5 -5 -4 -18 2 -13 7 -22 15
-20 19 2 3 0 9 -6 13 -6 4 -8 11 -4 16 3 5 0 8 -8 7 -8 -2 -12 4 -10 16 3 14
-1 17 -13 12 -12 -4 -16 -2 -12 8 4 10 1 13 -9 9 -13 -5 -12 -9 5 -27 11 -11
21 -25 23 -31 2 -5 7 -9 12 -7 5 2 4 -4 -3 -12 -7 -9 -16 -15 -19 -14 -23 6
-130 -28 -145 -46 -10 -12 -16 -16 -13 -10 8 16 -40 24 -55 10 -9 -8 -10 -7
-4 3 6 11 4 13 -8 8 -9 -3 -19 -1 -23 5 -5 7 -2 8 7 3 8 -5 11 -4 6 1 -5 5
-23 9 -40 9 -27 0 -32 4 -35 28 -2 15 -8 27 -13 27 -6 0 -8 -4 -5 -9 3 -5 -1
-14 -8 -21 -12 -9 -17 -7 -26 10 -6 11 -15 18 -21 15 -5 -4 -9 -1 -9 5 0 7 -7
7 -22 -1 -13 -6 -20 -8 -16 -4 12 13 -12 34 -30 28 -13 -4 -14 -3 -3 5 11 8
10 12 -5 22 -16 10 -16 11 -1 6 10 -3 17 0 17 7 0 8 4 7 9 -3 6 -8 8 -17 5
-21 -2 -4 3 -12 10 -18 12 -10 14 -8 9 11 -4 21 -4 22 10 5 14 -17 15 -17 22
0 5 10 8 21 7 25 -1 3 6 5 16 4 9 -2 17 -12 18 -24 1 -12 -2 -19 -7 -16 -4 2
-5 12 -2 22 5 14 3 15 -7 5 -16 -15 -23 -46 -9 -37 5 3 9 1 9 -5 0 -5 8 -8 18
-7 10 2 17 11 16 25 -1 18 1 19 14 9 13 -11 15 -10 9 4 -3 10 -3 17 1 17 18
-3 33 2 28 9 -3 5 2 9 10 9 8 0 13 -6 10 -14 -3 -7 1 -13 10 -13 9 0 12 -5 8
-12 -4 -7 -3 -9 1 -5 14 12 15 38 2 31 -7 -4 -7 -1 1 7 8 9 15 10 20 4 8 -12
32 -13 48 -2 7 4 14 1 17 -7 4 -11 42 -16 42 -6 0 1 13 3 28 4 20 2 27 -1 23
-11 -4 -10 1 -10 24 2 17 9 30 21 30 28 0 7 16 12 40 13 22 1 40 -3 40 -7 0
-5 11 -8 25 -7 16 2 24 7 21 15 -4 10 -1 10 14 1 17 -11 18 -15 6 -33 -21 -33
-26 -54 -14 -61 6 -4 9 -3 6 2 -8 14 12 61 20 47 5 -7 13 -3 25 12 12 17 14
26 5 31 -7 4 -8 3 -4 -4 4 -7 2 -12 -3 -12 -17 0 -13 15 9 35 11 10 20 15 20
10 0 -4 6 -3 13 2 6 6 20 9 29 8 10 -2 20 5 23 16 4 11 11 17 16 14 5 -4 12 1
15 9 3 9 15 16 25 16 10 0 20 5 20 10 1 6 2 16 3 23 1 6 10 11 20 9 15 -3 17
1 11 26 -5 25 -3 31 16 37 17 6 19 9 8 16 -8 5 -9 9 -3 9 18 0 25 29 14 50 -8
16 -2 26 35 61 25 24 44 48 41 54 -2 7 2 12 10 12 9 0 13 -6 10 -14 -3 -8 -2
-11 4 -8 5 3 8 23 6 45 -2 23 1 38 7 37 6 -1 13 9 17 23 4 14 13 24 22 24 9
-1 19 7 21 17 3 12 1 17 -5 12 -6 -3 -8 -2 -5 4 3 5 8 22 11 38 6 32 55 88 72
81 16 -6 35 8 38 30 2 12 11 19 25 18 11 0 19 2 16 4 -3 3 0 11 6 19 6 7 8 13
4 13 -4 0 9 23 29 50 20 28 36 55 36 60 0 6 7 10 15 10 8 0 18 12 21 28 4 15
21 43 39 62 19 19 43 45 55 58 11 12 25 20 30 17 6 -4 10 -1 10 5 0 6 5 8 12
4 6 -4 8 -3 4 4 -3 6 -2 13 4 17 6 3 13 -1 16 -9 3 -9 10 -13 15 -10 5 3 -1
14 -13 25 l-23 21 23 -5 c12 -3 20 -2 18 1 -2 4 0 18 5 31 7 17 15 22 29 18
10 -3 25 2 31 9 7 8 19 12 27 9 11 -4 12 -2 4 8 -18 21 -7 51 24 63 16 7 34
10 39 6 6 -3 7 -2 3 3 -4 4 0 14 10 22 9 8 11 11 3 7 -9 -5 -12 -3 -7 4 4 7 2
12 -5 12 -7 0 -10 2 -8 5 3 2 19 1 37 -4 21 -7 32 -6 36 2 4 11 10 -18 7 -36
-3 -15 29 8 84 62 45 43 53 56 43 68 -9 11 -13 11 -19 1 -5 -7 -9 -8 -9 -3 0
6 10 21 21 35 11 14 18 19 14 13 -3 -7 -3 -13 0 -13 3 0 11 13 16 29 8 23 22
34 57 47 26 10 61 30 77 45 29 26 44 33 74 30 11 -1 11 -4 0 -18 -8 -9 13 2
47 24 33 23 104 67 158 98 436 251 768 340 1256 334 514 -6 775 -59 1123 -228
260 -127 432 -253 672 -495 179 -181 401 -454 382 -472 -3 -3 -36 -10 -74 -14
-82 -10 -117 -22 -202 -70 -91 -52 -101 -75 -113 -252 -10 -156 0 -264 31
-332 35 -77 246 -314 417 -469 60 -54 55 -26 79 -447 53 -963 58 -1945 10
-2405 -16 -160 -15 -161 55 -167 44 -3 45 -3 58 37 7 22 11 55 8 72 -4 27 -2
33 14 33 10 0 31 13 47 28 23 24 35 28 69 24 35 -3 43 0 57 22 13 20 26 26 64
28 l48 3 1 45 c19 614 13 1066 -17 1313 -11 93 -7 120 11 71 6 -16 29 -61 52
-101 31 -54 54 -81 94 -108 59 -41 127 -69 193 -80 38 -6 43 -5 38 9 -5 12 5
22 38 37 25 12 48 26 52 32 3 6 1 7 -5 3 -7 -4 -12 -2 -12 4 0 6 8 9 18 5 11
-3 29 3 43 13 13 10 31 21 40 24 12 5 18 25 22 76 4 39 5 77 2 84 -3 8 -52 27
-108 42 -124 34 -170 58 -184 97 -6 16 -18 29 -27 29 -16 0 -87 124 -131 230
-15 36 -33 79 -40 95 -55 125 -74 175 -70 187 2 7 -11 33 -30 58 -19 25 -49
65 -67 90 -17 25 -65 89 -105 143 -40 54 -73 106 -73 116 0 16 56 51 81 51 6
0 24 11 41 25 16 14 37 25 47 25 10 0 28 11 41 26 l24 25 -22 43 c-18 33 -21
51 -16 84 6 40 5 44 -38 85 -24 23 -62 56 -82 72 l-38 30 -4 135 c-8 234 -21
424 -32 455 -6 17 -18 58 -26 93 l-14 63 65 132 c85 172 153 274 249 370 140
140 235 182 409 182 169 0 293 -43 466 -161 85 -57 202 -151 207 -165 5 -13
-20 -11 -69 7 -156 55 -350 71 -481 40 -163 -39 -321 -142 -441 -287 -83 -101
-164 -229 -173 -276 -6 -28 -4 -31 14 -26 11 2 23 0 26 -5 4 -7 16 -6 34 4 31
16 62 18 62 5 0 -5 -9 -13 -20 -16 -11 -3 -20 -11 -20 -16 0 -11 10 -6 55 27
17 12 57 34 90 50 51 23 77 28 165 32 101 4 110 3 197 -30 51 -19 90 -31 87
-26 -3 4 0 8 5 8 6 0 11 -4 11 -9 0 -5 9 -11 20 -14 11 -3 20 -1 20 4 0 5 7 9
15 9 8 0 15 -5 15 -11 0 -5 -5 -7 -11 -3 -8 4 -8 0 0 -15 7 -11 17 -21 24 -21
9 0 8 3 -1 9 -9 5 -3 8 17 9 17 0 33 -4 36 -9 4 -5 1 -9 -4 -9 -19 0 -12 -16
24 -53 19 -20 35 -33 35 -30 0 4 13 -6 29 -21 19 -18 27 -34 24 -47 -6 -23 -1
-22 -53 -4 -23 8 -55 15 -71 15 -15 0 -31 5 -34 10 -14 22 -26 9 -20 -20 6
-28 5 -30 -27 -32 -18 -1 -43 -1 -56 0 -18 1 -21 -2 -13 -12 8 -9 7 -13 -4
-13 -8 0 -15 4 -15 9 0 4 -9 8 -20 8 -18 0 -25 -10 -21 -32 0 -4 -6 -5 -13 -2
-9 3 -12 13 -9 22 4 13 2 12 -10 -3 -16 -20 -16 -20 -17 5 -1 22 -2 23 -11 7
-5 -9 -7 -22 -4 -27 3 -6 -1 -13 -9 -16 -9 -3 -14 -10 -11 -15 6 -9 -34 -33
-42 -25 -3 3 2 8 11 12 9 3 16 10 16 16 0 5 -6 6 -12 2 -7 -4 -5 2 5 13 23 27
22 30 -13 35 -21 3 -34 0 -40 -11 -7 -12 -9 -12 -10 -2 0 8 -8 4 -21 -10 -11
-13 -17 -17 -13 -9 5 12 4 12 -6 3 -15 -14 -43 -6 -33 10 3 6 1 7 -6 3 -6 -4
-9 -11 -6 -16 7 -12 -21 -20 -32 -9 -7 7 -22 5 -46 -4 -19 -9 -38 -12 -42 -9
-3 4 -3 -2 1 -13 6 -14 4 -17 -8 -12 -11 4 -18 -1 -21 -15 -4 -12 -11 -18 -20
-15 -16 6 -19 -21 -5 -39 5 -8 3 -14 -7 -18 -10 -4 -14 -2 -9 5 3 6 -6 3 -20
-6 -15 -10 -25 -24 -22 -31 4 -9 -2 -14 -16 -14 -17 0 -19 -3 -10 -12 9 -9 7
-15 -6 -25 -16 -14 -16 -14 0 -9 10 3 20 0 24 -6 4 -7 3 -8 -4 -4 -17 10 -15
-9 3 -24 13 -10 12 -15 -8 -31 -14 -12 -17 -18 -7 -17 8 2 18 8 22 13 5 7 8 7
8 0 0 -13 -20 -43 -20 -30 0 6 -4 3 -10 -5 -6 -9 -5 -17 2 -21 6 -4 11 -17 12
-29 1 -16 8 -24 25 -27 20 -3 22 -1 12 11 -10 11 -8 16 7 21 14 4 19 12 16 28
-4 21 -4 21 5 2 6 -14 5 -23 -5 -31 -18 -14 -18 -19 2 -38 8 -9 11 -16 5 -16
-6 0 -11 -5 -11 -11 0 -5 5 -7 10 -4 6 4 9 1 8 -6 -3 -12 8 -14 43 -10 5 0 7
6 3 12 -4 8 -9 7 -15 -2 -10 -16 -10 -15 -13 28 -1 17 2 29 6 27 4 -3 8 -12 8
-20 0 -10 5 -12 12 -8 7 5 21 9 31 9 15 2 18 -4 14 -28 -4 -27 -3 -28 10 -12
13 18 13 18 14 -1 1 -10 1 -26 0 -36 -2 -15 13 -31 32 -34 4 -1 8 -2 10 -3 1
-2 13 -4 27 -6 14 -2 19 -1 12 1 -6 3 -10 9 -7 14 3 4 -3 14 -12 21 -12 10
-14 10 -9 2 4 -7 3 -13 -3 -13 -19 0 -21 19 -4 29 10 6 13 11 6 11 -6 0 -15
-4 -18 -10 -10 -16 -21 -12 -22 8 -1 14 6 17 40 16 23 -1 45 4 49 10 5 7 8 7
8 -2 0 -7 5 -10 12 -6 7 5 8 3 3 -6 -6 -10 -3 -12 11 -7 18 7 18 6 1 -7 -23
-18 -22 -29 2 -17 14 8 22 7 32 -6 10 -12 10 -15 2 -9 -7 4 -13 3 -13 -3 0 -5
6 -12 13 -14 9 -4 9 -6 0 -6 -7 -1 -12 -11 -12 -23 1 -17 2 -19 6 -5 2 9 9 17
14 17 6 0 7 -5 4 -11 -10 -16 29 -49 46 -39 7 5 17 6 21 4 4 -3 8 0 8 5 0 17
36 13 51 -6 13 -17 12 -17 -6 -3 -16 11 -17 11 -8 0 16 -18 46 -22 40 -6 -3 7
1 13 8 13 7 0 11 -6 8 -13 -2 -6 1 -15 7 -19 8 -5 7 -11 -2 -23 -11 -15 -11
-15 4 -4 10 8 19 9 22 3 3 -5 3 -11 -1 -14 -5 -2 -1 -2 7 1 8 3 23 4 32 4 10
0 20 3 23 8 3 4 -6 7 -19 6 -13 -2 -34 5 -46 14 -20 15 -20 17 -4 15 11 0 28
-6 39 -12 16 -9 24 -8 40 5 15 13 17 13 8 2 -17 -22 21 -47 43 -29 12 10 15
10 12 -2 -2 -8 3 -13 10 -11 8 1 11 -1 9 -5 -3 -5 7 -17 21 -27 19 -15 24 -16
20 -4 -4 8 -1 15 7 15 7 0 12 -8 10 -18 -3 -17 -2 -17 19 -4 12 8 25 12 29 9
3 -3 11 -3 17 1 8 5 8 11 -1 21 -7 9 -8 14 -1 14 17 0 20 -24 4 -47 -12 -19
-18 -21 -34 -12 -15 8 -19 8 -14 0 4 -6 0 -11 -10 -11 -14 0 -15 -3 -6 -12 9
-9 15 -9 20 -2 11 15 52 15 58 -1 3 -8 13 -11 21 -8 12 5 14 3 8 -8 -7 -12 -6
-12 7 -1 16 13 14 47 -2 37 -5 -3 -12 0 -16 6 -4 7 -3 9 4 5 5 -3 13 0 15 6 4
10 6 9 6 -1 1 -11 4 -11 19 0 15 13 16 12 4 -3 -10 -12 -11 -22 -3 -35 6 -11
11 -13 11 -5 0 8 5 10 13 6 9 -6 9 -5 -1 8 -10 12 -9 18 3 28 13 11 14 10 10
-2 -4 -10 1 -17 14 -21 12 -3 19 -1 15 4 -3 5 3 6 12 2 11 -4 15 -3 10 5 -3 6
-1 14 5 18 8 4 9 3 5 -4 -4 -7 -4 -13 1 -13 4 -1 22 -3 38 -6 64 -10 90 -8 87
5 -1 8 2 11 8 7 6 -3 7 -11 4 -17 -4 -6 1 -6 14 1 15 8 23 7 32 -4 7 -8 17
-12 23 -8 6 3 7 1 3 -6 -9 -14 12 -43 24 -36 5 3 11 1 15 -4 3 -5 15 -8 26 -6
16 3 19 0 14 -18 -5 -19 -5 -20 5 -4 6 9 19 17 28 17 18 -1 62 -33 62 -46 0
-4 -9 1 -20 11 -22 20 -54 30 -44 14 3 -5 9 -7 13 -4 10 6 43 -29 36 -38 -3
-4 0 -3 6 2 14 11 41 3 33 -10 -3 -5 3 -6 12 -2 16 6 15 8 -4 16 -12 6 -22 16
-22 24 0 9 6 7 20 -7 11 -11 25 -21 30 -21 40 -5 57 -4 70 5 13 10 13 9 1 -6
-12 -16 -9 -22 11 -19 4 0 11 -7 16 -17 10 -18 -20 -80 -35 -74 -4 2 -9 -2
-11 -10 -2 -9 0 -8 7 2 10 13 15 8 12 -12 0 -5 4 -8 9 -8 6 0 10 6 9 13 -3 26
2 35 19 32 9 -2 20 -4 24 -4 12 -2 4 -41 -8 -41 -7 0 -10 8 -6 22 3 13 1 19
-6 15 -5 -4 -9 -15 -8 -25 2 -9 -3 -22 -11 -27 -12 -9 -11 -11 6 -11 11 0 17
5 14 10 -4 5 1 7 11 3 10 -4 20 -7 22 -7 3 0 2 -5 -2 -12 -4 -6 -3 -8 2 -5 6
3 16 2 24 -3 8 -5 21 -5 31 1 11 6 20 5 24 -1 3 -5 12 -10 18 -10 14 1 -22 23
-40 26 -7 1 -13 -3 -13 -9 0 -7 -4 -5 -10 3 -5 8 -14 15 -20 15 -5 0 -10 5 -9
10 1 6 5 9 11 7 5 -1 7 2 3 8 -3 6 -11 8 -16 5 -5 -3 -6 1 -3 10 6 14 8 14 20
-2 7 -10 14 -24 14 -31 0 -8 5 -10 13 -5 18 11 38 13 31 2 -7 -11 -1 -11 29 0
20 8 25 7 23 -4 -1 -8 -5 -18 -9 -21 -4 -4 -7 -12 -7 -18 0 -6 4 -5 9 3 13 20
55 -5 47 -27 -5 -14 -4 -14 8 1 10 13 15 14 18 6 3 -9 6 -8 11 3 4 12 1 16
-13 13 -10 -2 -27 6 -37 18 -16 19 -16 20 0 8 9 -7 17 -10 17 -6 0 4 7 2 15
-5 14 -12 19 -7 16 13 -1 5 3 6 9 2 6 -3 8 -11 5 -16 -4 -5 0 -9 7 -9 9 0 9
-3 -2 -10 -11 -7 -11 -10 -2 -10 7 0 17 -10 23 -22 l10 -23 -5 22 c-2 13 1 26
6 30 6 3 8 1 5 -4 -4 -6 1 -17 10 -24 9 -8 14 -9 10 -3 -4 7 0 14 8 18 8 3 14
0 12 -6 -1 -5 7 -12 18 -14 11 -1 26 -12 34 -23 7 -12 18 -21 23 -21 6 0 5 7
-2 15 -7 9 -10 18 -6 22 3 3 6 1 6 -5 0 -7 5 -12 11 -12 5 0 7 5 3 12 -4 7 -3
8 4 4 6 -4 8 -14 5 -23 -4 -11 -2 -14 8 -11 8 3 13 11 11 17 -1 7 2 10 8 6 6
-3 8 -11 5 -16 -6 -8 9 -13 28 -10 5 1 6 -3 2 -8 -3 -6 -12 -8 -20 -4 -8 3
-15 0 -15 -7 0 -8 10 -11 30 -7 25 5 28 4 23 -11 -6 -15 -5 -16 12 -2 10 8 16
10 13 4 -4 -5 9 -19 28 -29 37 -20 69 -60 39 -49 -9 4 -13 9 -10 12 2 3 -4 12
-16 20 -11 8 -23 11 -26 8 -4 -3 -1 -6 6 -6 7 0 9 -5 5 -12 -4 -7 -3 -8 4 -4
7 4 13 2 13 -3 1 -6 3 -15 4 -21 1 -5 3 -15 4 -21 1 -8 5 -8 14 -1 9 8 12 0
12 -36 0 -26 -4 -53 -9 -61 -7 -10 -6 -12 4 -6 10 6 12 1 8 -19 -3 -14 -1 -26
3 -26 5 0 4 -12 -1 -26 -7 -16 -7 -23 0 -19 6 3 10 -1 10 -10 0 -9 -4 -14 -9
-11 -5 4 -7 -3 -4 -14 3 -11 9 -18 12 -15 4 2 8 -2 8 -9 0 -7 -6 -13 -13 -13
-7 0 -11 4 -8 8 2 4 0 10 -5 13 -10 7 -9 -13 1 -29 4 -6 24 -10 46 -10 38 0
49 -12 27 -32 -4 -4 -5 -2 -1 5 4 7 1 12 -8 12 -24 0 -30 -4 -32 -18 -2 -9 1
-10 10 -3 7 6 16 8 20 4 3 -4 13 -8 21 -9 13 -2 15 258 15 2027 l0 2029 -5000
0 -5000 0 0 -1588z m3513 543 c-3 -9 -8 -14 -10 -11 -3 3 -2 9 2 15 9 16 15
13 8 -4z m-573 -429 c0 -2 -8 -10 -17 -17 -16 -13 -17 -12 -4 4 13 16 21 21
21 13z m4157 -646 c45 -27 65 -72 67 -149 3 -154 -5 -361 -13 -361 -15 0 -97
151 -109 202 -22 86 -12 328 12 328 6 0 25 -9 43 -20z m-4870 -230 c1 -11 -2
-20 -8 -20 -10 0 -12 23 -2 33 9 9 9 10 10 -13z m5861 -94 c15 5 15 4 -1 -6
-9 -6 -14 -17 -11 -23 4 -7 3 -9 -1 -4 -5 4 -10 18 -11 30 -2 12 0 17 2 10 3
-7 13 -10 22 -7z m149 -1 c0 -8 -4 -12 -9 -9 -5 3 -6 10 -3 15 9 13 12 11 12
-6z m-428 -210 c5 2 6 -8 3 -23 -5 -24 -6 -24 -13 -7 -4 11 -8 27 -8 35 1 10
2 11 6 2 2 -6 8 -10 12 -7z m-36 -15 c-7 -8 -52 -7 -47 1 2 4 15 6 28 5 13 0
22 -3 19 -6z m-6558 -43 c4 5 5 2 1 -5 -4 -7 -13 -9 -19 -5 -7 4 -16 8 -21 8
-5 0 -10 8 -12 19 -2 17 -1 16 20 -3 12 -12 26 -18 31 -14z m6552 3 c-2 -11
-6 -22 -9 -26 -4 -3 -5 2 -3 13 2 10 4 21 4 26 1 4 3 7 6 7 3 0 4 -9 2 -20z
m26 -5 c4 -8 2 -17 -3 -20 -6 -4 -10 3 -10 14 0 25 6 27 13 6z m-6413 -11 c0
-8 -19 -13 -24 -6 -3 5 1 9 9 9 8 0 15 -2 15 -3z m6411 -41 c12 -16 12 -17 -2
-6 -9 7 -20 9 -24 5 -5 -4 -5 -1 -1 6 9 16 11 15 27 -5z m-6364 -35 c-3 -7 -5
-2 -5 12 0 14 2 19 5 13 2 -7 2 -19 0 -25z m6321 11 c-10 -5 -15 -16 -12 -24
4 -8 1 -15 -6 -15 -6 0 -8 5 -5 10 3 6 1 10 -6 10 -7 0 -4 7 7 15 10 8 24 14
29 14 6 0 2 -4 -7 -10z m118 -48 c-4 -5 0 -11 6 -14 7 -2 1 -4 -14 -4 -16 0
-28 4 -28 9 0 5 4 7 9 3 5 -3 12 -1 16 5 3 5 8 10 11 10 3 0 3 -4 0 -9z m244
-19 c0 -5 -7 -9 -15 -9 -8 0 -12 4 -9 9 3 4 9 8 15 8 5 0 9 -4 9 -8z m-7395
-133 c-7 -10 25 -20 38 -12 7 3 3 -3 -8 -14 -11 -11 -20 -20 -21 -19 0 0 -7
13 -16 27 -13 21 -14 26 -3 26 8 0 12 -4 10 -8z m7440 -36 c-11 -7 -24 -13
-29 -13 -6 1 -1 6 12 13 12 7 19 17 15 22 -4 4 -2 5 6 0 12 -7 11 -10 -4 -22z
m-7380 -33 c3 -6 -1 -7 -9 -4 -18 7 -21 14 -7 14 6 0 13 -4 16 -10z m-45 -6
c0 -8 -19 -13 -24 -6 -3 5 1 9 9 9 8 0 15 -2 15 -3z m7680 -10 c0 -8 -19 -13
-24 -6 -3 5 1 9 9 9 8 0 15 -2 15 -3z m94 -32 c2 -4 -4 -8 -14 -8 -10 0 -16 4
-14 8 3 4 9 8 14 8 5 0 11 -4 14 -8z"/>
<path d="M3319 8793 l-24 -28 28 24 c25 23 32 31 24 31 -2 0 -14 -12 -28 -27z"/>
<path d="M2446 7989 c-26 -30 -27 -49 -3 -49 8 0 8 3 -1 9 -10 6 -7 15 13 39
15 18 25 32 22 32 -3 0 -17 -14 -31 -31z"/>
<path d="M7625 7712 c-12 -9 -38 -37 -60 -62 -30 -35 -25 -32 23 15 34 33 62
61 62 62 0 5 -5 2 -25 -15z"/>
<path d="M7493 7578 c-11 -13 -24 -30 -28 -38 -8 -16 -6 -14 34 33 14 15 22
27 19 27 -2 0 -14 -10 -25 -22z"/>
<path d="M8115 7540 c-3 -6 1 -7 9 -4 18 7 21 14 7 14 -6 0 -13 -4 -16 -10z"/>
<path d="M7785 7510 c-16 -7 -17 -9 -3 -9 9 -1 20 4 23 9 7 11 7 11 -20 0z"/>
<path d="M7678 7463 c7 -3 16 -2 19 1 4 3 -2 6 -13 5 -11 0 -14 -3 -6 -6z"/>
<path d="M7745 7440 c-3 -5 -1 -10 4 -10 6 0 11 5 11 10 0 6 -2 10 -4 10 -3 0
-8 -4 -11 -10z"/>
<path d="M7670 7417 c0 -19 16 -31 24 -18 3 5 -1 14 -9 21 -12 10 -15 10 -15
-3z"/>
<path d="M7650 7411 c0 -7 -5 -9 -12 -5 -7 5 -8 3 -3 -5 5 -9 10 -10 18 -2 6
6 8 14 4 18 -4 3 -7 1 -7 -6z"/>
<path d="M1720 7325 c0 -2 6 -8 13 -14 10 -8 14 -7 14 2 0 8 -6 14 -14 14 -7
0 -13 -1 -13 -2z"/>
<path d="M1859 7303 c-13 -16 -12 -17 4 -4 9 7 17 15 17 17 0 8 -8 3 -21 -13z"/>
<path d="M1470 7254 c0 -8 5 -12 10 -9 6 4 8 11 5 16 -9 14 -15 11 -15 -7z"/>
<path d="M7620 7151 c0 -19 23 -71 31 -71 12 0 12 1 -6 44 -15 34 -25 46 -25
27z"/>
<path d="M7690 7120 c-8 -5 -12 -12 -9 -15 4 -3 12 1 19 10 14 17 11 19 -10 5z"/>
<path d="M7744 7099 c0 -10 4 -15 8 -13 7 5 12 -10 9 -28 0 -5 4 -7 11 -5 7 1
13 -2 13 -8 1 -5 4 -17 7 -25 4 -8 9 -23 12 -33 3 -10 10 -15 16 -12 7 4 7 12
0 24 -6 12 -5 22 3 31 10 10 7 11 -13 5 -23 -7 -24 -7 -10 11 8 10 11 16 6 12
-10 -9 -50 38 -42 50 3 5 0 9 -7 9 -7 0 -13 -8 -13 -18z"/>
<path d="M7975 7071 c-8 -13 24 -63 36 -55 5 3 14 2 20 -2 7 -4 8 -9 1 -13 -6
-4 -4 -12 6 -21 14 -13 15 -12 10 2 -4 9 -4 19 0 22 3 4 6 15 7 26 1 15 -2 17
-16 9 -20 -10 -34 4 -23 24 4 6 4 9 -1 5 -4 -4 -14 -3 -21 3 -8 7 -14 7 -19 0z"/>
<path d="M7670 7003 c0 -12 5 -25 10 -28 13 -8 13 15 0 35 -8 12 -10 11 -10
-7z"/>
<path d="M8000 6988 c0 -3 9 -15 20 -28 11 -13 20 -19 20 -13 0 5 -9 18 -20
28 -11 10 -20 16 -20 13z"/>
<path d="M370 6920 c0 -5 5 -10 11 -10 5 0 7 5 4 10 -3 6 -8 10 -11 10 -2 0
-4 -4 -4 -10z"/>
<path d="M411 6911 c-37 -28 -3 -33 39 -5 33 23 33 24 10 24 -14 0 -36 -9 -49
-19z"/>
<path d="M5920 6904 c0 -19 5 -24 25 -24 18 0 25 5 25 19 0 12 -9 20 -25 23
-21 4 -25 1 -25 -18z"/>
<path d="M327 6906 c-4 -10 -1 -13 8 -9 8 3 12 9 9 14 -7 12 -11 11 -17 -5z"/>
<path d="M8353 6886 c0 -8 6 -12 14 -9 9 4 11 0 7 -12 -6 -16 -5 -16 14 1 26
22 27 25 8 18 -8 -3 -17 -1 -21 5 -9 15 -22 14 -22 -3z"/>
<path d="M888 6853 c7 -3 16 -2 19 1 4 3 -2 6 -13 5 -11 0 -14 -3 -6 -6z"/>
<path d="M8725 6810 c-3 -6 1 -7 9 -4 18 7 21 14 7 14 -6 0 -13 -4 -16 -10z"/>
<path d="M8756 6805 c-11 -8 -15 -15 -9 -15 7 0 15 5 18 10 4 6 11 7 17 4 7
-4 8 -2 4 4 -9 14 -7 15 -30 -3z"/>
<path d="M8893 6806 c-9 -11 -7 -14 12 -12 17 1 21 4 13 14 -12 14 -10 14 -25
-2z"/>
<path d="M8801 6794 c0 -11 3 -14 6 -6 3 7 2 16 -1 19 -3 4 -6 -2 -5 -13z"/>
<path d="M8824 6802 c4 -3 14 -7 22 -8 9 -1 13 0 10 4 -4 3 -14 7 -22 8 -9 1
-13 0 -10 -4z"/>
<path d="M8693 6785 c0 -8 4 -12 9 -9 5 3 6 10 3 15 -9 13 -12 11 -12 -6z"/>
<path d="M6121 6724 c0 -11 3 -14 6 -6 3 7 2 16 -1 19 -3 4 -6 -2 -5 -13z"/>
<path d="M6210 6728 c-12 -8 -12 -9 2 -5 9 3 19 1 22 -6 3 -9 5 -9 5 0 1 18
-13 23 -29 11z"/>
<path d="M6243 6685 c0 -8 4 -12 9 -9 5 3 6 10 3 15 -9 13 -12 11 -12 -6z"/>
<path d="M9195 6670 c-3 -5 4 -11 15 -15 11 -3 19 -9 18 -13 -1 -4 2 -15 6
-24 7 -15 9 -15 26 -1 10 9 16 22 13 30 -3 8 -8 11 -11 9 -3 -3 -12 0 -20 6
-18 15 -40 19 -47 8z m51 -36 c1 -9 -1 -13 -4 -9 -4 4 -7 10 -7 13 0 4 -4 14
-9 22 -7 12 -6 13 4 3 8 -7 15 -20 16 -29z"/>
<path d="M6260 6630 c-8 -5 -10 -10 -5 -10 6 0 3 -5 -5 -10 -13 -8 -13 -10 2
-10 9 0 18 8 21 18 2 9 4 2 4 -15 0 -25 -3 -30 -12 -23 -20 17 -30 -56 -10
-76 8 -8 15 -22 15 -30 0 -8 5 -14 10 -14 6 0 4 12 -4 29 -14 26 -14 30 0 35
8 3 13 2 9 -3 -7 -12 27 -71 41 -71 6 0 16 -10 22 -22 28 -55 53 -93 76 -117
13 -14 26 -42 29 -61 l4 -35 1 40 c1 22 -4 65 -12 95 -8 29 -12 59 -10 65 3 6
-2 39 -10 72 -7 34 -12 64 -10 66 3 3 -2 7 -10 10 -11 4 -14 0 -11 -15 3 -11
3 -19 0 -17 -14 14 -55 82 -56 92 -1 7 -4 1 -8 -13 -8 -30 -34 -33 -39 -5 -5
28 -15 36 -32 25z m5 -90 c3 -5 1 -10 -4 -10 -6 0 -11 5 -11 10 0 6 2 10 4 10
3 0 8 -4 11 -10z"/>
<path d="M9428 6523 c7 -3 16 -2 19 1 4 3 -2 6 -13 5 -11 0 -14 -3 -6 -6z"/>
<path d="M3347 6503 c-4 -6 -16 -9 -27 -6 -18 5 -20 0 -20 -37 0 -38 2 -41 22
-34 34 10 44 26 38 59 -3 18 -8 25 -13 18z"/>
<path d="M9320 6482 c0 -7 7 -15 15 -18 11 -5 12 -11 4 -27 -10 -21 -10 -21 5
-3 10 12 16 15 16 7 0 -10 3 -11 14 -2 11 9 15 9 18 -1 3 -8 6 -7 11 4 4 13 1
16 -19 12 -16 -3 -23 0 -22 8 2 7 -3 12 -11 10 -8 -2 -18 3 -22 10 -7 10 -9
10 -9 0z"/>
<path d="M9735 6399 c-4 -6 -5 -12 -2 -15 2 -3 7 2 10 11 7 17 1 20 -8 4z"/>
<path d="M5520 6383 c-111 -19 -223 -68 -287 -126 -45 -40 -18 -65 29 -27 36
28 183 101 226 112 20 5 56 14 80 19 77 19 38 37 -48 22z"/>
<path d="M5815 6365 c132 -60 169 -75 173 -70 11 11 -17 26 -102 55 -93 32
-121 38 -71 15z"/>
<path d="M5425 6300 c-3 -5 -15 -10 -26 -10 -10 0 -19 -6 -19 -14 0 -7 -10
-16 -22 -19 -12 -4 -19 -9 -16 -12 6 -7 115 43 124 56 3 5 -4 9 -15 9 -11 0
-23 -4 -26 -10z"/>
<path d="M5784 6286 c5 -22 3 -25 -26 -28 -29 -3 -37 -10 -62 -60 -16 -32 -33
-58 -38 -58 -4 0 -8 21 -8 48 0 53 -6 66 -35 74 -11 3 -29 9 -40 13 -16 7 -18
6 -7 -6 20 -22 14 -33 -25 -48 -57 -20 -108 -24 -132 -12 -14 8 -21 8 -21 1 0
-6 12 -15 26 -20 l25 -10 -47 -55 c-35 -40 -63 -61 -108 -80 l-61 -25 48 6
c26 3 47 5 47 3 0 -2 -9 -28 -20 -57 -11 -29 -20 -59 -20 -68 0 -9 40 25 93
78 109 111 215 170 177 98 -12 -22 -12 -22 11 -6 34 24 72 20 103 -10 35 -36
34 -77 -3 -115 -39 -38 -88 -40 -124 -4 -32 33 -38 24 -44 -75 -14 -193 73
-350 215 -390 50 -14 136 -13 186 2 46 14 146 104 146 131 0 28 -46 20 -101
-18 -58 -40 -96 -49 -179 -43 -47 3 -68 10 -97 34 -68 54 -109 173 -58 167 11
-2 31 -4 43 -5 13 -1 33 -15 44 -30 10 -16 25 -28 32 -28 8 0 20 -7 27 -16 10
-12 25 -15 55 -11 48 5 79 26 119 79 16 21 36 38 45 38 9 0 21 5 27 11 16 16
33 2 33 -26 0 -30 38 -55 51 -34 17 28 31 125 25 179 -3 30 -19 82 -36 115
-16 33 -28 61 -26 62 9 9 132 -87 162 -128 42 -58 90 -167 100 -227 11 -70 24
-58 24 22 0 41 3 77 8 80 4 2 43 -13 87 -35 91 -44 95 -45 95 -24 0 9 -13 18
-31 22 -29 5 -139 95 -139 113 0 5 25 20 55 34 30 14 55 28 55 31 0 4 -17 4
-39 0 -48 -8 -118 10 -148 37 -29 27 -21 38 27 38 21 0 42 5 45 10 4 6 -18 10
-58 10 -62 0 -66 2 -141 56 -78 57 -91 77 -37 54 16 -6 38 -10 48 -8 10 2 -14
15 -57 29 -68 24 -75 28 -71 50 3 23 3 23 -17 6 -18 -16 -28 -17 -108 -7 -84
11 -104 19 -104 48 0 6 -5 12 -11 12 -7 0 -9 -10 -5 -24z m-10 -311 c8 -22 -3
-42 -27 -49 -33 -9 -35 -8 -47 15 -9 15 -8 24 1 35 15 19 65 18 73 -1z"/>
<path d="M3820 6102 c-20 -4 -14 -7 30 -18 30 -7 66 -13 80 -14 14 0 38 -7 54
-15 16 -9 36 -13 43 -11 7 3 13 1 13 -4 0 -5 7 -7 15 -4 8 4 15 1 15 -5 0 -6
8 -11 19 -11 10 0 49 -14 86 -31 93 -42 109 -24 26 30 -115 74 -264 107 -381
83z"/>
<path d="M3563 6041 c-107 -52 -116 -70 -11 -22 46 20 94 42 108 48 22 10 23
12 4 12 -11 1 -56 -17 -101 -38z"/>
<path d="M3680 6002 c0 -5 5 -13 12 -20 16 -16 5 -24 -65 -50 l-59 -22 -29 21
c-16 11 -29 16 -29 10 0 -5 5 -13 10 -16 22 -14 7 -34 -57 -78 -70 -46 -145
-117 -126 -117 6 0 16 7 23 15 22 26 22 10 -1 -58 -22 -69 -34 -77 -106 -77
-14 0 -21 -4 -18 -10 3 -5 27 -10 52 -10 45 0 45 0 40 -29 -15 -73 -103 -208
-123 -188 -3 3 -2 53 3 112 6 70 5 109 -2 117 -7 8 -6 9 3 4 17 -10 15 2 -4
22 -18 18 -48 26 -38 10 3 -5 -2 -8 -11 -6 -11 2 -19 -4 -20 -15 -2 -9 1 -15
6 -11 13 7 11 -13 -2 -39 -7 -12 -8 -22 -3 -24 5 -2 9 -22 7 -45 -1 -22 3 -50
8 -61 6 -11 7 -22 3 -26 -8 -5 -9 -19 -5 -55 1 -6 6 -5 13 2 22 22 30 13 24
-25 -3 -21 -2 -30 2 -21 8 19 127 118 141 118 9 0 5 -55 -9 -122 -13 -61 7
-43 26 22 9 33 21 60 25 60 5 0 24 -22 41 -50 33 -50 59 -70 37 -27 -7 12 -14
68 -17 124 -8 176 39 283 159 362 73 47 97 53 75 19 -8 -13 -17 -34 -21 -46
-6 -21 -5 -23 13 -13 35 19 81 13 107 -14 33 -32 32 -70 -1 -100 -33 -31 -73
-32 -108 -4 -15 12 -30 19 -33 15 -3 -3 -8 -39 -11 -80 -8 -129 52 -270 145
-336 60 -42 147 -53 218 -25 55 21 127 98 144 155 14 48 15 45 -21 54 -25 6
-30 2 -52 -42 -13 -27 -43 -65 -65 -85 -52 -47 -102 -50 -168 -11 -47 27 -103
103 -103 138 1 30 24 58 37 45 8 -8 17 -8 29 -1 15 8 25 4 52 -19 26 -23 42
-29 80 -29 42 0 52 4 83 38 20 20 43 49 52 65 21 32 37 35 44 7 4 -16 11 -18
32 -13 14 3 29 11 34 17 9 13 0 117 -15 164 -17 56 -2 52 46 -13 14 -18 15
-19 16 -2 0 20 -63 116 -112 172 -16 19 -25 35 -19 35 24 0 9 18 -26 33 -82
34 -176 51 -267 48 -16 -1 -44 7 -62 18 -19 11 -34 17 -34 13z m198 -319 c-2
-22 -9 -29 -30 -31 -24 -3 -28 0 -28 21 0 30 7 37 37 37 21 0 24 -4 21 -27z"/>
<path d="M9873 5977 c1 -19 5 -33 9 -31 6 4 1 55 -7 62 -2 3 -3 -12 -2 -31z"/>
<path d="M7024 5926 c-10 -14 -41 -61 -69 -105 -27 -44 -58 -83 -68 -86 -14
-5 -17 -17 -16 -70 l2 -63 82 6 c46 2 95 2 109 -2 34 -8 81 -74 101 -141 31
-107 11 -423 -34 -539 -6 -16 -9 -31 -7 -34 15 -15 50 136 66 290 19 175 -5
313 -68 397 -24 30 -29 51 -44 188 -9 84 -21 160 -26 169 -8 14 -12 12 -28
-10z"/>
<path d="M9863 5845 c0 -8 4 -12 9 -9 5 3 6 10 3 15 -9 13 -12 11 -12 -6z"/>
<path d="M9975 5730 c-3 -5 -3 -15 1 -22 4 -6 3 -8 -4 -4 -14 9 -24 -8 -16
-28 6 -15 8 -15 21 1 13 16 13 16 3 -4 -6 -13 -16 -23 -23 -23 -8 0 -7 -3 2
-9 25 -16 37 -2 38 44 1 44 -9 66 -22 45z"/>
<path d="M3070 5498 c0 -23 3 -29 9 -19 8 12 4 51 -5 51 -2 0 -4 -15 -4 -32z"/>
<path d="M6980 5488 c-18 -13 -49 -43 -69 -68 -35 -45 -35 -45 -4 -16 l32 29
33 -28 c39 -33 104 -64 135 -65 12 0 27 -8 33 -17 9 -14 10 0 6 60 -6 105 -21
127 -85 127 -33 0 -58 -7 -81 -22z"/>
<path d="M6015 5400 c3 -5 11 -10 16 -10 6 0 7 5 4 10 -3 6 -11 10 -16 10 -6
0 -7 -4 -4 -10z"/>
<path d="M5650 5351 c-6 -12 -7 -21 -1 -21 10 0 24 30 17 37 -2 3 -9 -5 -16
-16z"/>
<path d="M5787 5356 c-4 -10 -5 -21 -2 -24 9 -9 17 6 13 25 -3 17 -4 17 -11
-1z"/>
<path d="M6879 5347 c-4 -7 -9 -67 -14 -187 -3 -74 -8 -146 -11 -160 -4 -24
-4 -24 5 -2 12 26 21 29 16 5 -12 -61 -16 -73 -23 -69 -4 2 -9 -5 -9 -17 -2
-17 0 -19 7 -7 7 11 10 11 10 2 0 -7 4 -11 9 -8 5 3 15 -2 22 -11 12 -14 12
-16 -1 -8 -12 6 -13 5 -3 -5 10 -11 9 -16 -5 -27 -16 -12 -16 -13 1 -7 13 5
16 2 11 -10 -3 -9 -10 -13 -15 -10 -5 3 -9 1 -9 -4 0 -5 -13 -15 -30 -22 -33
-14 -40 -30 -12 -30 28 0 108 57 147 104 19 23 47 69 62 102 25 52 28 70 28
161 l0 102 -35 36 c-19 20 -46 42 -60 49 -23 12 -88 28 -91 23z m26 -47 c7
-11 -5 -113 -13 -106 -2 3 -6 26 -8 51 -2 33 1 43 9 38 7 -4 6 0 -2 10 -8 10
-9 17 -3 17 6 0 14 -4 17 -10z"/>
<path d="M9012 5260 c-13 -5 -37 -10 -55 -11 -43 -2 -117 -20 -117 -28 0 -3
-14 -7 -32 -7 -18 -1 -34 -6 -36 -13 -2 -6 -13 -11 -23 -11 -11 0 -18 -4 -15
-9 3 -4 -8 -7 -25 -5 -18 2 -28 0 -24 -6 9 -14 -9 -12 -24 3 -8 6 -6 0 4 -15
9 -15 14 -32 10 -38 -3 -5 -1 -10 6 -10 10 0 10 -3 1 -12 -9 -9 -8 -14 4 -23
18 -12 16 -16 -37 -59 -15 -12 -19 -21 -11 -24 9 -3 8 -8 -3 -19 -8 -8 -13
-19 -10 -24 3 -4 -9 -23 -27 -41 -42 -41 -75 -89 -72 -105 1 -7 2 -24 3 -36 0
-13 10 -35 21 -48 11 -13 23 -28 28 -34 10 -13 6 -58 -7 -83 -6 -11 -7 -22 -3
-26 3 -4 -2 -4 -13 0 -11 4 -17 4 -13 -1 22 -24 -103 -75 -183 -75 -16 0 -43
-10 -58 -21 -17 -13 -34 -18 -42 -14 -7 5 -10 4 -6 -2 4 -6 -7 -13 -26 -17
-18 -3 -49 -14 -68 -24 -23 -12 -58 -17 -109 -17 -45 0 -80 -5 -88 -12 -7 -7
-20 -9 -29 -6 -12 5 -15 2 -10 -9 4 -12 1 -14 -14 -11 -13 4 -19 0 -19 -11 0
-9 -6 -19 -13 -22 -8 -3 -14 -10 -14 -17 -1 -7 -4 -31 -8 -54 -6 -37 -5 -44
11 -49 11 -4 25 -12 32 -18 22 -17 50 -17 56 0 3 8 10 13 15 10 5 -3 15 1 22
10 27 33 84 53 135 48 27 -2 56 -6 65 -9 9 -3 46 -1 83 4 63 9 75 7 159 -20
51 -17 101 -38 112 -48 62 -57 177 -69 298 -31 43 13 79 19 98 15 16 -4 44 -2
61 4 18 5 47 12 63 15 47 8 97 24 140 46 21 11 49 20 61 20 13 0 33 4 47 9 13
5 30 5 38 1 8 -5 16 -5 20 1 6 10 118 13 189 5 20 -2 58 -15 85 -30 28 -14 68
-28 90 -31 22 -3 54 -10 70 -15 17 -5 50 -12 75 -15 24 -4 48 -9 52 -11 5 -3
8 -1 8 4 0 5 14 7 30 4 l30 -4 0 477 c0 472 0 477 -20 472 -11 -3 -20 -2 -20
3 0 4 -19 3 -42 -2 -24 -5 -62 -14 -86 -19 -24 -5 -59 -20 -78 -33 -18 -12
-44 -22 -56 -20 -13 1 -26 3 -30 3 -5 1 -8 7 -8 15 0 8 -5 18 -12 22 -7 5 -8
2 -3 -7 4 -8 -5 -2 -22 14 -16 15 -34 27 -40 27 -6 0 -14 6 -16 13 -4 9 -6 9
-6 -1 -1 -10 -4 -10 -15 0 -8 7 -12 16 -9 20 2 5 -7 4 -21 -2 -15 -5 -26 -6
-26 -1 0 5 -11 8 -25 7 -13 -2 -22 1 -19 5 4 7 -5 11 -18 8 -2 0 -20 7 -40 16
-21 8 -38 12 -38 8 0 -5 -4 -3 -8 2 -9 12 -97 45 -137 51 -73 11 -172 13 -193
4z"/>
<path d="M3496 5211 c-4 -7 -5 -15 -2 -18 9 -9 19 4 14 18 -4 11 -6 11 -12 0z"/>
<path d="M8740 5210 c0 -5 5 -10 11 -10 5 0 7 5 4 10 -3 6 -8 10 -11 10 -2 0
-4 -4 -4 -10z"/>
<path d="M4111 5174 c0 -11 3 -14 6 -6 3 7 2 16 -1 19 -3 4 -6 -2 -5 -13z"/>
<path d="M3557 5173 c-4 -3 -7 -13 -7 -22 1 -13 3 -13 11 2 11 19 8 33 -4 20z"/>
<path d="M4006 5104 c-4 -9 -4 -19 -1 -22 2 -3 7 3 11 12 4 9 4 19 1 22 -2 3
-7 -3 -11 -12z"/>
<path d="M3885 5090 c-4 -12 -5 -24 -2 -27 3 -2 8 5 12 17 4 12 5 24 2 27 -3
2 -8 -5 -12 -17z"/>
<path d="M3120 5073 c0 -18 6 -33 15 -36 21 -9 61 -90 46 -95 -9 -3 -7 -10 4
-22 20 -22 12 -40 -16 -40 -10 0 -19 -7 -19 -15 0 -18 1 -18 34 -6 30 12 38 3
70 -75 19 -47 69 -166 113 -271 3 -9 -5 -13 -28 -13 -35 0 -85 25 -128 64
l-24 21 6 -25 c4 -14 7 -28 7 -32 0 -5 5 -8 10 -8 6 0 25 -10 41 -22 22 -17
45 -23 83 -24 29 0 58 -4 66 -9 10 -6 12 -4 6 11 -4 10 -25 64 -46 119 -42
110 -84 205 -136 306 -19 37 -34 77 -34 89 0 18 -27 63 -62 105 -4 5 -8 -5 -8
-22z"/>
<path d="M3805 5080 c-4 -12 -5 -24 -2 -27 3 -2 8 5 12 17 4 12 5 24 2 27 -3
2 -8 -5 -12 -17z"/>
<path d="M4690 5055 c0 -3 5 -27 11 -53 12 -46 29 -79 29 -53 0 24 -23 101
-31 107 -5 3 -9 2 -9 -1z"/>
<path d="M7090 4834 c-53 -101 -196 -256 -325 -351 -17 -12 -25 -23 -18 -23 7
0 57 40 113 89 141 125 266 278 258 316 -2 9 -13 -3 -28 -31z"/>
<path d="M3255 4611 c-6 -11 13 -26 22 -17 4 3 1 6 -6 6 -7 0 -9 5 -6 10 3 6
4 10 1 10 -3 0 -7 -4 -11 -9z"/>
<path d="M1869 4445 c-1 -3 -2 -11 -3 -17 -1 -7 -8 -12 -15 -10 -7 1 -10 -2
-6 -8 3 -6 11 -7 17 -4 8 5 9 1 5 -10 -4 -9 -3 -15 2 -12 8 5 13 66 5 66 -2 0
-5 -2 -5 -5z"/>
<path d="M1901 4431 c-8 -5 -9 -11 -3 -15 5 -3 12 1 16 9 6 17 6 18 -13 6z"/>
<path d="M6433 4399 c-13 -24 -27 -51 -32 -59 -5 -8 -15 -31 -22 -50 -20 -53
-153 -224 -249 -321 -180 -181 -594 -465 -1001 -688 -121 -66 -129 -64 -497
99 -75 34 -184 82 -242 107 -244 106 -459 209 -520 248 -59 38 -163 140 -216
212 -12 16 -50 85 -85 155 l-63 126 -15 -32 c-27 -52 -57 -47 -123 21 -82 86
-131 127 -73 62 28 -30 66 -74 86 -97 41 -47 71 -53 105 -21 l21 20 63 -116
c69 -127 157 -237 247 -310 35 -29 126 -80 229 -131 95 -45 175 -87 178 -93
12 -19 24 -327 15 -387 -14 -92 -21 -102 -76 -109 -90 -12 -139 -34 -181 -79
-48 -52 -62 -78 -109 -199 -38 -100 -94 -216 -123 -257 -19 -27 -37 -36 -180
-91 -47 -17 -105 -41 -130 -52 -37 -17 -75 -22 -225 -27 -198 -8 -184 -4 -450
-108 -71 -28 -164 -58 -205 -67 -92 -19 -251 -66 -520 -152 l-205 -66 -58 -58
c-52 -52 -63 -59 -98 -59 -22 0 -72 -7 -111 -16 -61 -14 -76 -22 -117 -63 -25
-26 -52 -55 -59 -64 -19 -25 -42 -21 -154 28 -139 62 -143 64 -176 96 -16 15
-91 59 -167 96 l-138 68 -379 3 -378 3 0 -986 0 -985 3860 0 c2879 0 3860 3
3860 11 0 13 -510 525 -720 723 -74 70 -126 123 -115 117 35 -16 138 -24 168
-12 15 6 31 20 35 31 7 18 33 -6 203 -177 107 -109 228 -236 269 -283 41 -47
78 -87 81 -90 32 -28 249 -295 249 -306 0 -12 144 -14 1055 -14 l1055 0 0 869
0 870 -27 -10 c-16 -5 -37 -22 -48 -37 -19 -26 -20 -44 -22 -498 -1 -447 -2
-473 -21 -510 -14 -28 -21 -66 -24 -133 -6 -131 -7 -131 -192 -131 -136 0
-144 1 -164 23 -15 16 -22 36 -22 64 0 25 -6 45 -17 55 -17 14 -98 31 -133 27
-8 -1 -160 -2 -337 -3 -298 -2 -324 -3 -343 -21 -13 -12 -20 -31 -20 -54 0
-36 -22 -81 -40 -81 -11 0 -23 39 -51 165 -27 123 -85 268 -133 334 -37 51
-100 111 -115 111 -5 0 -35 26 -68 59 -57 56 -142 101 -193 101 -11 0 -60 42
-115 99 -77 80 -122 115 -233 184 -75 47 -164 98 -197 112 -33 14 -85 37 -115
51 -82 37 -154 54 -260 63 l-95 7 -86 86 c-114 112 -172 142 -288 145 l-84 2
-56 54 c-79 77 -93 83 -148 62 -53 -20 -61 -18 -165 52 -68 46 -70 48 -134
177 -36 72 -77 147 -92 166 -39 53 -157 164 -218 206 -42 29 -54 43 -54 63 0
87 61 426 80 445 5 5 10 22 10 37 0 30 72 275 133 453 l41 118 166 167 c138
138 180 188 253 298 72 108 88 139 85 164 l-3 32 -22 -44z m-2414 -1562 c3 2
6 -4 6 -11 0 -8 7 -22 16 -33 9 -10 14 -25 12 -33 -3 -9 -1 -11 4 -5 13 16 31
16 29 0 -1 -8 -6 -18 -11 -22 -4 -5 -4 -1 0 7 8 13 7 13 -8 1 -22 -18 -21 -21
3 -16 12 2 20 -2 20 -9 0 -20 59 -68 73 -59 7 4 7 1 -2 -10 -13 -16 -8 -22 13
-18 5 1 4 -4 -2 -12 -16 -18 18 -52 36 -37 9 7 9 7 2 -2 -14 -16 -13 -31 2
-22 7 5 9 1 6 -13 -4 -16 -2 -19 13 -16 11 3 19 0 19 -6 0 -6 9 -20 20 -31 11
-11 20 -17 20 -13 0 4 5 2 12 -5 8 -8 8 -15 -3 -29 -12 -16 -11 -15 9 1 12 11
23 16 23 13 1 -4 2 -12 3 -18 0 -5 20 -25 44 -43 24 -17 48 -43 55 -56 7 -13
26 -27 43 -32 17 -4 36 -18 43 -30 13 -26 58 -50 75 -42 6 3 3 -1 -7 -9 -16
-14 -16 -14 8 -14 14 0 46 -17 72 -37 25 -20 50 -36 53 -36 4 0 10 -9 13 -20
6 -22 52 -44 74 -36 8 3 11 1 8 -4 -3 -6 -1 -10 5 -10 7 0 23 -9 37 -20 14
-11 29 -17 34 -14 5 3 6 -3 2 -12 -4 -11 -2 -15 4 -11 11 7 46 -26 38 -36 -3
-4 -2 -5 2 -2 9 7 43 -25 43 -42 0 -7 -6 -13 -12 -13 -7 0 24 -18 69 -40 45
-22 87 -40 92 -40 5 0 13 -4 16 -10 9 -14 -84 -52 -281 -115 -265 -83 -235
-86 -357 31 -134 129 -380 353 -592 539 -93 81 -171 154 -173 161 -2 8 8 28
21 46 22 30 50 85 116 228 31 67 70 133 84 142 6 4 20 -1 30 -10 11 -9 22 -16
26 -15z m37 -33 c2 -12 -1 -13 -12 -3 -7 6 -11 16 -8 21 7 11 17 3 20 -18z
m74 -120 c0 -3 -7 -1 -15 6 -8 7 -15 17 -15 22 0 5 7 3 15 -6 8 -8 15 -18 15
-22z m-942 -451 c32 -44 1 -82 -97 -119 -66 -25 -172 -32 -201 -14 -13 8 -13
14 0 52 16 44 45 67 119 95 49 18 161 10 179 -14z m3517 -308 c33 -9 81 -29
106 -46 47 -30 165 -146 157 -154 -2 -3 -42 -2 -88 2 -80 6 -86 8 -139 51 -79
63 -141 124 -141 138 0 12 15 22 35 23 6 1 38 -6 70 -14z m198 -1269 c69 -28
137 -144 107 -181 -26 -31 -52 -12 -117 84 -34 52 -63 98 -63 103 0 12 37 10
73 -6z"/>
<path d="M1910 4355 c0 -8 4 -15 8 -15 5 0 9 7 9 15 0 8 -4 15 -9 15 -4 0 -8
-7 -8 -15z"/>
<path d="M5248 4343 c6 -2 18 -2 25 0 6 3 1 5 -13 5 -14 0 -19 -2 -12 -5z"/>
<path d="M1900 4311 c0 -12 5 -19 10 -16 6 3 10 -1 10 -9 0 -9 -9 -16 -20 -16
-11 0 -20 -5 -20 -12 0 -6 -7 -3 -15 8 -15 19 -15 19 -8 -1 3 -11 11 -23 17
-27 6 -4 1 -6 -12 -5 -12 0 -21 6 -20 12 2 5 -2 10 -7 10 -6 0 -8 -4 -6 -10 2
-5 4 -20 4 -32 1 -12 5 -19 9 -17 5 3 6 10 3 15 -4 5 5 9 19 9 19 0 30 -9 42
-32 l17 -32 27 32 c18 22 30 29 38 22 9 -7 9 -7 2 3 -6 6 -16 12 -22 12 -6 0
-13 13 -15 28 -3 20 0 27 8 22 8 -6 8 -2 0 12 -6 11 -8 23 -5 26 3 3 -2 4 -13
3 -10 -2 -24 1 -30 7 -10 7 -13 4 -13 -12z m50 -22 c0 -5 -4 -9 -8 -9 -5 0 -9
7 -9 15 0 8 4 12 9 9 4 -3 8 -9 8 -15z"/>
<path d="M5048 4323 c12 -2 30 -2 40 0 9 3 -1 5 -23 4 -22 0 -30 -2 -17 -4z"/>
<path d="M2286 4267 c3 -10 9 -15 12 -12 3 3 0 11 -7 18 -10 9 -11 8 -5 -6z"/>
<path d="M2332 4165 c18 -35 34 -63 36 -61 4 5 -56 126 -63 126 -3 0 10 -29
27 -65z"/>
<path d="M1866 4198 c3 -5 10 -6 15 -3 13 9 11 12 -6 12 -8 0 -12 -4 -9 -9z"/>
<path d="M1805 4190 c-3 -5 -1 -10 4 -10 6 0 11 5 11 10 0 6 -2 10 -4 10 -3 0
-8 -4 -11 -10z"/>
<path d="M2400 4164 c0 -6 6 -32 14 -57 8 -29 10 -49 5 -53 -6 -3 -7 -15 -4
-25 11 -34 145 -222 189 -264 22 -22 54 -56 69 -75 25 -32 27 -32 18 -8 -5 14
-23 53 -40 85 -29 59 -119 275 -126 303 -10 45 -26 72 -40 66 -8 -3 -15 0 -15
7 0 7 -7 3 -15 -7 -14 -18 -15 -18 -15 -2 0 9 -4 15 -9 11 -6 -3 -14 3 -20 12
-6 10 -11 13 -11 7z"/>
<path d="M2150 4154 c0 -6 7 -19 16 -30 14 -18 14 -18 3 6 -14 31 -19 36 -19
24z"/>
<path d="M2 3801 c3 -224 3 -226 25 -226 12 0 25 -3 29 -7 4 -4 13 -3 21 3 10
9 17 8 30 -2 11 -10 14 -10 9 -1 -5 8 0 12 18 12 13 0 36 4 51 10 14 5 36 12
49 14 44 8 123 65 141 101 9 20 19 34 23 31 4 -2 7 8 8 22 0 15 4 34 7 42 6
11 0 15 -20 16 -16 1 -44 5 -63 9 -19 4 -44 8 -54 10 -11 1 -21 6 -23 12 -2 6
-12 9 -23 6 -26 -7 -60 31 -60 68 0 43 -38 73 -112 92 l-58 15 2 -227z"/>
<path d="M3960 3513 c0 -4 5 -15 10 -23 8 -13 10 -13 10 2 0 9 -4 20 -10 23
-5 3 -10 3 -10 -2z"/>
<path d="M3913 3222 c10 -10 17 -24 17 -30 0 -7 5 -12 10 -12 6 0 10 3 10 8 0
14 -31 52 -42 52 -6 0 -4 -8 5 -18z"/>
<path d="M4075 3210 l-20 -9 20 0 c11 0 27 4 35 9 13 9 13 10 0 9 -8 0 -24 -4
-35 -9z"/>
<path d="M1595 2907 c-51 -30 -82 -89 -66 -124 7 -14 16 -21 23 -17 7 4 8 3 4
-5 -6 -9 35 -35 74 -46 3 -1 18 -7 34 -14 16 -6 34 -10 40 -8 6 2 24 -2 40 -8
20 -9 40 -10 60 -4 17 5 49 9 71 9 22 0 61 11 87 24 26 12 45 19 42 15 -2 -4
13 0 35 9 22 9 37 20 35 24 -3 4 1 5 9 2 8 -3 17 2 21 11 4 11 12 14 26 10 14
-4 22 -1 27 10 8 23 -48 75 -81 75 -14 0 -28 4 -31 10 -3 5 -41 9 -85 9 -43 0
-88 4 -99 11 -23 12 -74 20 -166 26 -49 3 -67 0 -100 -19z"/>
<path d="M2946 2893 c-15 -19 -32 -30 -38 -27 -8 5 -9 1 -4 -12 5 -14 4 -16
-4 -8 -9 9 -22 6 -53 -11 -23 -13 -53 -25 -67 -27 -14 -2 -28 -6 -31 -11 -3
-4 -16 -10 -30 -12 -106 -20 -204 -61 -216 -91 -4 -12 30 -58 45 -60 22 -3 43
-18 39 -29 -3 -6 0 -12 6 -12 7 0 20 -4 30 -8 9 -4 17 -3 17 2 0 5 7 10 15 10
8 0 12 -4 9 -9 -3 -4 0 -8 5 -8 6 0 11 5 11 11 0 8 4 9 13 0 8 -6 17 -8 21 -4
3 4 44 8 91 9 l84 1 73 62 c39 33 77 60 82 59 20 -3 66 14 66 24 0 6 7 5 16
-3 9 -7 18 -9 22 -3 4 5 30 10 57 12 65 4 87 11 79 24 -5 8 -1 9 10 5 11 -4
16 -3 14 4 -2 6 -7 10 -12 9 -5 -1 -12 4 -16 10 -4 7 -25 13 -46 14 -23 1 -40
6 -40 14 -3 22 -4 23 -23 12 -14 -7 -22 -7 -27 2 -5 7 -3 8 6 3 9 -5 11 -4 6
3 -4 7 -16 12 -26 12 -10 0 -22 5 -25 10 -4 6 -11 8 -16 5 -5 -4 -9 -1 -9 5 0
6 -4 9 -9 5 -5 -3 -12 -1 -16 5 -3 5 -15 10 -26 10 -10 0 -19 4 -19 9 0 5 -8
11 -19 14 -12 3 -27 -7 -45 -30z"/>
</g>
</svg>
